<svg xmlns="http://www.w3.org/2000/svg" viewBox="0 0 24 24" fill="currentColor">
  <path d="M12.525.02c1.31-.02 2.61-.01 3.91-.02.08 1.53.63 3.09 1.75 4.17 1.12 1.11 2.7 1.62 4.24 1.79v4.03c-1.44-.05-2.89-.35-4.2-.97-.57-.26-1.1-.59-1.62-.93v7.02c0 1.25-.19 2.53-.78 3.65-.63 1.24-1.65 2.25-2.9 2.77-1.35.58-2.91.68-4.32.32-1.44-.36-2.73-1.22-3.6-2.39-1.04-1.38-1.48-3.15-1.2-4.85.29-1.74 1.31-3.29 2.74-4.22 1.48-.99 3.32-1.31 5.04-1.01v4.06c-.66-.17-1.39-.14-2.02.15-.59.25-1.06.74-1.28 1.34-.23.63-.18 1.35.13 1.94.31.62.88 1.1 1.54 1.28.69.19 1.46.12 2.1-.21.61-.31 1.12-.83 1.36-1.47.21-.55.28-1.16.27-1.76V.02h-.03z"/>
</svg>
